# Blender v2.81 (sub 16) OBJ File: ''
# www.blender.org
mtllib door.mtl
o Cube
v 0.129247 2.930672 -1.157709
v 0.129247 -0.661251 -1.157709
v 0.129247 2.930672 1.157709
v 0.129247 -0.661251 1.157709
v -0.129247 2.930672 -1.157709
v -0.129247 -0.661251 -1.157709
v -0.129247 2.930672 1.157709
v -0.129247 -0.661251 1.157709
v -0.129247 2.757760 -0.950248
v 0.129247 2.757760 -0.950248
v -0.129247 -0.661251 0.950248
v -0.129247 2.757760 0.950248
v 0.129247 2.757760 0.950248
v 0.129247 -0.661251 0.950248
v 0.129247 -0.661251 -0.950248
v -0.129247 -0.661251 -0.950248
vt 0.625000 0.500000
vt 0.875000 0.500000
vt 0.875000 0.750000
vt 0.625000 0.750000
vt 0.375000 0.750000
vt 0.625000 1.000000
vt 0.375000 1.000000
vt 0.375000 0.000000
vt 0.625000 0.000000
vt 0.625000 0.250000
vt 0.375000 0.250000
vt 0.375000 0.227600
vt 0.612965 0.227600
vt 0.612965 0.022400
vt 0.375000 0.022400
vt 0.125000 0.500000
vt 0.375000 0.500000
vt 0.375000 0.522400
vt 0.125000 0.522400
vt 0.375000 0.727600
vt 0.612965 0.727600
vt 0.612965 0.522400
vt 0.625000 0.478091
vt 0.625000 0.271909
vt 0.470028 0.271909
vt 0.470028 0.478091
vt 0.125000 0.727600
vt 0.125000 0.750000
vt 0.625000 0.978091
vt 0.625000 0.771909
vt 0.470028 0.771909
vt 0.470028 0.978091
vt 0.646909 0.750000
vt 0.853091 0.750000
vt 0.853091 0.500000
vt 0.646909 0.500000
vn 0.0000 1.0000 0.0000
vn 0.0000 0.0000 1.0000
vn -1.0000 -0.0000 0.0000
vn 0.0000 -1.0000 0.0000
vn 1.0000 -0.0000 0.0000
vn 0.0000 0.0000 -1.0000
usemtl Material
s off
f 1/1/1 5/2/1 7/3/1 3/4/1
f 4/5/2 3/4/2 7/6/2 8/7/2
f 8/8/3 7/9/3 5/10/3 6/11/3 16/12/3 9/13/3 12/14/3 11/15/3
f 6/16/4 2/17/4 15/18/4 16/19/4
f 2/17/5 1/1/5 3/4/5 4/5/5 14/20/5 13/21/5 10/22/5 15/18/5
f 6/11/6 5/10/6 1/1/6 2/17/6
f 10/23/2 9/24/2 16/25/2 15/26/2
f 11/27/4 14/20/4 4/5/4 8/28/4
f 12/29/6 13/30/6 14/31/6 11/32/6
f 13/33/4 12/34/4 9/35/4 10/36/4
o Cube.001
v -1.795935 -0.658958 -1.572817
v -1.795935 2.757760 -1.572817
v 0.014918 -0.658958 -0.996018
v 0.014918 2.757760 -0.996018
v -1.825298 -0.658958 -1.480630
v -1.825298 2.757760 -1.480630
v -0.014446 -0.658958 -0.903831
v -0.014446 2.757760 -0.903831
v -1.656741 0.988290 -1.397103
v -1.656741 1.067780 -1.397103
v -1.544201 0.988290 -1.361326
v -1.544201 1.067780 -1.361326
v -1.663558 0.988290 -1.375659
v -1.663558 1.067780 -1.375659
v -1.551019 0.988290 -1.339882
v -1.551019 1.067780 -1.339882
v -1.544201 0.989454 -1.361326
v -1.656741 0.989454 -1.397103
v -1.656741 1.068943 -1.397103
v -1.544201 1.068943 -1.361326
v -1.551019 0.989454 -1.339882
v -1.551019 1.068943 -1.339882
v -1.663558 0.989454 -1.375659
v -1.663558 1.068943 -1.375659
v -1.544201 1.068142 -1.361326
v -1.656741 1.068142 -1.397103
v -1.656741 1.147632 -1.397103
v -1.544201 1.147632 -1.361326
v -1.551019 1.068142 -1.339882
v -1.551019 1.147632 -1.339882
v -1.663558 1.068142 -1.375659
v -1.663558 1.147632 -1.375659
v -1.537251 0.989392 -1.383191
v -1.649790 0.989392 -1.418967
v -1.649790 1.068882 -1.418967
v -1.537251 1.068882 -1.383191
v -1.544068 0.989392 -1.361746
v -1.544068 1.068882 -1.361746
v -1.656607 0.989392 -1.397523
v -1.656607 1.068882 -1.397523
v -1.544201 1.145909 -1.361326
v -1.656741 1.145909 -1.397103
v -1.656741 1.225398 -1.397103
v -1.544201 1.225398 -1.361326
v -1.551019 1.145909 -1.339882
v -1.551019 1.225398 -1.339882
v -1.663558 1.145909 -1.375659
v -1.663558 1.225398 -1.375659
v -1.544201 1.226147 -1.361326
v -1.656741 1.226147 -1.397103
v -1.656741 1.305637 -1.397103
v -1.544201 1.305637 -1.361326
v -1.551019 1.226147 -1.339882
v -1.551019 1.305637 -1.339882
v -1.663558 1.226147 -1.375659
v -1.663558 1.305637 -1.375659
v -1.544201 1.305716 -1.361326
v -1.656741 1.305716 -1.397103
v -1.656741 1.385206 -1.397103
v -1.544201 1.385206 -1.361326
v -1.551019 1.305716 -1.339882
v -1.551019 1.385206 -1.339882
v -1.663558 1.305716 -1.375659
v -1.663558 1.385206 -1.375659
v -1.537309 1.304088 -1.383006
v -1.649849 1.307044 -1.418783
v -1.649849 1.386533 -1.418783
v -1.537309 1.383578 -1.383006
v -1.544127 1.304088 -1.361561
v -1.544127 1.383578 -1.361561
v -1.656666 1.307044 -1.397338
v -1.656666 1.386533 -1.397338
v -1.530445 0.989492 -1.404597
v -1.642985 0.989492 -1.440374
v -1.642985 1.068982 -1.440374
v -1.530445 1.068982 -1.404597
v -1.537263 0.989492 -1.383152
v -1.537263 1.068982 -1.383152
v -1.649802 0.989492 -1.418929
v -1.649802 1.068982 -1.418929
v -1.530334 1.303122 -1.404946
v -1.642874 1.306077 -1.440723
v -1.642874 1.385567 -1.440723
v -1.530334 1.382611 -1.404946
v -1.537152 1.303122 -1.383501
v -1.537152 1.382611 -1.383501
v -1.649691 1.306077 -1.419278
v -1.649691 1.385567 -1.419278
vt 0.375000 0.000000
vt 0.625000 0.000000
vt 0.625000 0.250000
vt 0.375000 0.250000
vt 0.625000 0.500000
vt 0.375000 0.500000
vt 0.625000 0.750000
vt 0.375000 0.750000
vt 0.625000 1.000000
vt 0.375000 1.000000
vt 0.125000 0.500000
vt 0.125000 0.750000
vt 0.875000 0.500000
vt 0.875000 0.750000
vt 0.375000 0.000000
vt 0.375000 0.250000
vt 0.625000 0.250000
vt 0.625000 0.000000
vt 0.375000 0.500000
vt 0.625000 0.500000
vt 0.375000 0.750000
vt 0.625000 0.750000
vt 0.375000 1.000000
vt 0.625000 1.000000
vt 0.125000 0.500000
vt 0.125000 0.750000
vt 0.875000 0.750000
vt 0.875000 0.500000
vt 0.375000 0.000000
vt 0.375000 0.250000
vt 0.625000 0.250000
vt 0.625000 0.000000
vt 0.375000 0.500000
vt 0.625000 0.500000
vt 0.375000 0.750000
vt 0.625000 0.750000
vt 0.375000 1.000000
vt 0.625000 1.000000
vt 0.125000 0.500000
vt 0.125000 0.750000
vt 0.875000 0.750000
vt 0.875000 0.500000
vt 0.375000 0.000000
vt 0.625000 0.000000
vt 0.625000 0.250000
vt 0.375000 0.250000
vt 0.625000 0.500000
vt 0.375000 0.500000
vt 0.625000 0.750000
vt 0.375000 0.750000
vt 0.625000 1.000000
vt 0.375000 1.000000
vt 0.125000 0.500000
vt 0.125000 0.750000
vt 0.875000 0.500000
vt 0.875000 0.750000
vt 0.375000 0.000000
vt 0.375000 0.250000
vt 0.625000 0.250000
vt 0.625000 0.000000
vt 0.375000 0.500000
vt 0.625000 0.500000
vt 0.375000 0.750000
vt 0.625000 0.750000
vt 0.375000 1.000000
vt 0.625000 1.000000
vt 0.125000 0.500000
vt 0.125000 0.750000
vt 0.875000 0.750000
vt 0.875000 0.500000
vt 0.375000 0.000000
vt 0.625000 0.000000
vt 0.625000 0.250000
vt 0.375000 0.250000
vt 0.625000 0.500000
vt 0.375000 0.500000
vt 0.625000 0.750000
vt 0.375000 0.750000
vt 0.625000 1.000000
vt 0.375000 1.000000
vt 0.125000 0.500000
vt 0.125000 0.750000
vt 0.875000 0.500000
vt 0.875000 0.750000
vt 0.375000 0.000000
vt 0.625000 0.000000
vt 0.625000 0.250000
vt 0.375000 0.250000
vt 0.625000 0.500000
vt 0.375000 0.500000
vt 0.625000 0.750000
vt 0.375000 0.750000
vt 0.625000 1.000000
vt 0.375000 1.000000
vt 0.125000 0.500000
vt 0.125000 0.750000
vt 0.875000 0.500000
vt 0.875000 0.750000
vt 0.375000 0.000000
vt 0.625000 0.000000
vt 0.625000 0.250000
vt 0.375000 0.250000
vt 0.625000 0.500000
vt 0.375000 0.500000
vt 0.625000 0.750000
vt 0.375000 0.750000
vt 0.625000 1.000000
vt 0.375000 1.000000
vt 0.125000 0.500000
vt 0.125000 0.750000
vt 0.875000 0.500000
vt 0.875000 0.750000
vt 0.375000 0.000000
vt 0.625000 0.000000
vt 0.625000 0.250000
vt 0.375000 0.250000
vt 0.625000 0.500000
vt 0.375000 0.500000
vt 0.625000 0.750000
vt 0.375000 0.750000
vt 0.625000 1.000000
vt 0.375000 1.000000
vt 0.125000 0.500000
vt 0.125000 0.750000
vt 0.875000 0.500000
vt 0.875000 0.750000
vt 0.375000 0.000000
vt 0.625000 0.000000
vt 0.625000 0.250000
vt 0.375000 0.250000
vt 0.625000 0.500000
vt 0.375000 0.500000
vt 0.625000 0.750000
vt 0.375000 0.750000
vt 0.625000 1.000000
vt 0.375000 1.000000
vt 0.125000 0.500000
vt 0.125000 0.750000
vt 0.875000 0.500000
vt 0.875000 0.750000
vt 0.375000 0.000000
vt 0.375000 0.250000
vt 0.625000 0.250000
vt 0.625000 0.000000
vt 0.375000 0.500000
vt 0.625000 0.500000
vt 0.375000 0.750000
vt 0.625000 0.750000
vt 0.375000 1.000000
vt 0.625000 1.000000
vt 0.125000 0.500000
vt 0.125000 0.750000
vt 0.875000 0.750000
vt 0.875000 0.500000
vn 0.3035 0.0000 -0.9528
vn 0.9528 0.0000 0.3035
vn -0.3035 0.0000 0.9528
vn -0.9528 0.0000 -0.3035
vn 0.0000 -1.0000 -0.0000
vn 0.0000 1.0000 0.0000
vn -0.3030 0.0000 0.9530
vn -0.9530 0.0000 -0.3030
vn 0.3030 0.0000 -0.9530
vn 0.9530 0.0000 0.3030
vn -0.0238 -0.9997 -0.0076
vn 0.0238 0.9997 0.0076
usemtl None
s off
f 17/37/7 18/38/7 20/39/7 19/40/7
f 19/40/8 20/39/8 24/41/8 23/42/8
f 23/42/9 24/41/9 22/43/9 21/44/9
f 21/44/10 22/43/10 18/45/10 17/46/10
f 19/47/11 23/42/11 21/44/11 17/48/11
f 24/41/12 20/49/12 18/50/12 22/43/12
f 25/51/13 27/52/13 28/53/13 26/54/13
f 27/52/14 31/55/14 32/56/14 28/53/14
f 31/55/15 29/57/15 30/58/15 32/56/15
f 29/57/16 25/59/16 26/60/16 30/58/16
f 27/61/12 25/62/12 29/57/12 31/55/12
f 32/56/11 30/58/11 26/63/11 28/64/11
f 34/65/13 33/66/13 36/67/13 35/68/13
f 33/66/14 37/69/14 38/70/14 36/67/14
f 37/69/15 39/71/15 40/72/15 38/70/15
f 39/71/16 34/73/16 35/74/16 40/72/16
f 33/75/12 34/76/12 39/71/12 37/69/12
f 38/70/11 40/72/11 35/77/11 36/78/11
f 42/79/15 43/80/15 44/81/15 41/82/15
f 41/82/16 44/81/16 46/83/16 45/84/16
f 45/84/13 46/83/13 48/85/13 47/86/13
f 47/86/14 48/85/14 43/87/14 42/88/14
f 41/89/11 45/84/11 47/86/11 42/90/11
f 46/83/12 44/91/12 43/92/12 48/85/12
f 50/93/13 49/94/13 52/95/13 51/96/13
f 49/94/14 53/97/14 54/98/14 52/95/14
f 53/97/15 55/99/15 56/100/15 54/98/15
f 55/99/16 50/101/16 51/102/16 56/100/16
f 49/103/12 50/104/12 55/99/12 53/97/12
f 54/98/11 56/100/11 51/105/11 52/106/11
f 58/107/15 59/108/15 60/109/15 57/110/15
f 57/110/16 60/109/16 62/111/16 61/112/16
f 61/112/13 62/111/13 64/113/13 63/114/13
f 63/114/14 64/113/14 59/115/14 58/116/14
f 57/117/11 61/112/11 63/114/11 58/118/11
f 62/111/12 60/119/12 59/120/12 64/113/12
f 66/121/15 67/122/15 68/123/15 65/124/15
f 65/124/16 68/123/16 70/125/16 69/126/16
f 69/126/13 70/125/13 72/127/13 71/128/13
f 71/128/14 72/127/14 67/129/14 66/130/14
f 65/131/11 69/126/11 71/128/11 66/132/11
f 70/125/12 68/133/12 67/134/12 72/127/12
f 74/135/15 75/136/15 76/137/15 73/138/15
f 73/138/16 76/137/16 78/139/16 77/140/16
f 77/140/13 78/139/13 80/141/13 79/142/13
f 79/142/14 80/141/14 75/143/14 74/144/14
f 73/145/11 77/140/11 79/142/11 74/146/11
f 78/139/12 76/147/12 75/148/12 80/141/12
f 82/149/15 83/150/15 84/151/15 81/152/15
f 81/152/16 84/151/16 86/153/16 85/154/16
f 85/154/13 86/153/13 88/155/13 87/156/13
f 87/156/14 88/155/14 83/157/14 82/158/14
f 81/159/17 85/154/17 87/156/17 82/160/17
f 86/153/18 84/161/18 83/162/18 88/155/18
f 90/163/15 91/164/15 92/165/15 89/166/15
f 89/166/16 92/165/16 94/167/16 93/168/16
f 93/168/13 94/167/13 96/169/13 95/170/13
f 95/170/14 96/169/14 91/171/14 90/172/14
f 89/173/11 93/168/11 95/170/11 90/174/11
f 94/167/12 92/175/12 91/176/12 96/169/12
f 98/177/13 97/178/13 100/179/13 99/180/13
f 97/178/14 101/181/14 102/182/14 100/179/14
f 101/181/15 103/183/15 104/184/15 102/182/15
f 103/183/16 98/185/16 99/186/16 104/184/16
f 97/187/18 98/188/18 103/183/18 101/181/18
f 102/182/17 104/184/17 99/189/17 100/190/17
